# Blender v3.0.1 OBJ File: 'newRacetrack2.blend'
# www.blender.org
mtllib grass.mtl
o Plane
v 0.000000 0.000000 0.000000
v 0.000000 0.000000 0.877744
v 0.000000 0.000000 0.585163
v 0.000000 0.000000 0.292581
v -0.353224 0.000000 0.000000
v -0.645805 0.000000 0.000000
v -0.353224 0.000000 0.877744
v -0.645805 0.000000 0.877744
v -0.645805 0.000000 0.585163
v -0.645805 0.000000 0.292581
v -0.353224 0.000000 0.585163
v -0.353224 0.000000 0.292581
v 0.000000 0.000000 0.146291
v 0.000000 0.000000 1.199472
v -0.846206 0.000000 0.000000
v -0.836638 0.000000 0.877744
v 0.000000 0.000000 0.731454
v 0.000000 0.000000 0.438872
v -0.176612 0.000000 0.000000
v -0.499515 0.000000 0.000000
v -0.176612 0.000000 0.877744
v -0.499515 0.000000 0.877744
v -0.633262 0.000000 1.123627
v -0.349000 0.000000 1.174943
v -0.645805 0.000000 0.146291
v -0.645805 0.000000 0.731454
v -0.645805 0.000000 0.438872
v -0.353224 0.000000 0.146291
v -0.353224 0.000000 0.731454
v -0.353224 0.000000 0.438872
v -0.845117 0.000000 0.585163
v -0.847374 0.000000 0.292581
v -0.499515 0.000000 0.585163
v -0.499515 0.000000 0.292581
v -0.176612 0.000000 0.585163
v -0.176612 0.000000 0.292581
v -0.176612 0.000000 0.438872
v -0.176612 0.000000 0.731454
v -0.499515 0.000000 0.438872
v -0.499515 0.000000 0.731454
v -0.847132 0.000000 0.438872
v -0.845226 0.000000 0.731454
v -0.499515 0.000000 0.146291
v -0.847025 0.000000 0.146291
v -0.491131 0.000000 1.165394
v -0.804017 0.000000 1.065509
v -0.174500 0.000000 1.186839
v -0.176612 0.000000 0.146291
v 0.353224 0.000000 0.000000
v 0.645805 0.000000 0.000000
v 0.353224 0.000000 0.877744
v 0.645805 0.000000 0.877744
v 0.645805 0.000000 0.585163
v 0.645805 0.000000 0.292581
v 0.353224 0.000000 0.585163
v 0.353224 0.000000 0.292581
v 0.834035 0.000000 0.000000
v 0.828902 0.000000 0.877744
v 0.176612 0.000000 0.000000
v 0.499515 0.000000 0.000000
v 0.176612 0.000000 0.877744
v 0.499515 0.000000 0.877744
v 0.633262 0.000000 1.123627
v 0.349000 0.000000 1.174943
v 0.645805 0.000000 0.146291
v 0.645805 0.000000 0.731454
v 0.645805 0.000000 0.438872
v 0.353224 0.000000 0.146291
v 0.353224 0.000000 0.731454
v 0.353224 0.000000 0.438872
v 0.835538 0.000000 0.585163
v 0.833966 0.000000 0.292581
v 0.499515 0.000000 0.585163
v 0.499515 0.000000 0.292581
v 0.176612 0.000000 0.585163
v 0.176612 0.000000 0.292581
v 0.176612 0.000000 0.438872
v 0.176612 0.000000 0.731454
v 0.499515 0.000000 0.438872
v 0.499515 0.000000 0.731454
v 0.833129 0.000000 0.438872
v 0.833687 0.000000 0.731454
v 0.499515 0.000000 0.146291
v 0.833455 0.000000 0.146291
v 0.491131 0.000000 1.165394
v 0.791812 0.000000 1.079752
v 0.174500 0.000000 1.186839
v 0.176612 0.000000 0.146291
v 0.000000 0.000000 -0.877744
v 0.000000 0.000000 -0.585163
v 0.000000 0.000000 -0.292581
v -0.353224 0.000000 -0.877744
v -0.645805 0.000000 -0.877744
v -0.645805 0.000000 -0.585163
v -0.645805 0.000000 -0.292581
v -0.353224 0.000000 -0.585163
v -0.353224 0.000000 -0.292581
v 0.000000 0.000000 -0.146291
v 0.000000 0.000000 -1.199472
v -0.819694 0.000000 -0.877744
v 0.000000 0.000000 -0.731454
v 0.000000 0.000000 -0.438872
v -0.176612 0.000000 -0.877744
v -0.499515 0.000000 -0.877744
v -0.648161 0.000000 -1.134272
v -0.349000 0.000000 -1.174943
v -0.645805 0.000000 -0.146291
v -0.645805 0.000000 -0.731454
v -0.645805 0.000000 -0.438872
v -0.353224 0.000000 -0.146291
v -0.353224 0.000000 -0.731454
v -0.353224 0.000000 -0.438872
v -0.846289 0.000000 -0.585163
v -0.851093 0.000000 -0.292581
v -0.499515 0.000000 -0.585163
v -0.499515 0.000000 -0.292581
v -0.176612 0.000000 -0.585163
v -0.176612 0.000000 -0.292581
v -0.176612 0.000000 -0.438872
v -0.176612 0.000000 -0.731454
v -0.499515 0.000000 -0.438872
v -0.499515 0.000000 -0.731454
v -0.847132 0.000000 -0.438872
v -0.837391 0.000000 -0.731454
v -0.499515 0.000000 -0.146291
v -0.847025 0.000000 -0.146291
v -0.491131 0.000000 -1.165394
v -0.770993 0.000000 -1.078464
v -0.174500 0.000000 -1.186839
v -0.176612 0.000000 -0.146291
v 0.353224 0.000000 -0.877744
v 0.645805 0.000000 -0.877744
v 0.645805 0.000000 -0.585163
v 0.645805 0.000000 -0.292581
v 0.353224 0.000000 -0.585163
v 0.353224 0.000000 -0.292581
v 0.825661 0.000000 -0.877744
v 0.176612 0.000000 -0.877744
v 0.499515 0.000000 -0.877744
v 0.633262 0.000000 -1.150462
v 0.349000 0.000000 -1.174943
v 0.645805 0.000000 -0.146291
v 0.645805 0.000000 -0.731454
v 0.645805 0.000000 -0.438872
v 0.353224 0.000000 -0.146291
v 0.353224 0.000000 -0.731454
v 0.353224 0.000000 -0.438872
v 0.838004 0.000000 -0.585163
v 0.837915 0.000000 -0.292581
v 0.499515 0.000000 -0.585163
v 0.499515 0.000000 -0.292581
v 0.176612 0.000000 -0.585163
v 0.176612 0.000000 -0.292581
v 0.176612 0.000000 -0.438872
v 0.176612 0.000000 -0.731454
v 0.499515 0.000000 -0.438872
v 0.499515 0.000000 -0.731454
v 0.839659 0.000000 -0.438872
v 0.828922 0.000000 -0.731454
v 0.499515 0.000000 -0.146291
v 0.835394 0.000000 -0.146291
v 0.491131 0.000000 -1.165394
v 0.770993 0.000000 -1.099439
v 0.174500 0.000000 -1.186839
v 0.176612 0.000000 -0.146291
vt 0.562500 0.546875
vt 0.562500 0.546875
vt 0.562500 0.546875
vt 0.562500 0.546875
vt 0.562500 0.546875
vt 0.562500 0.546875
vt 0.562500 0.546875
vt 0.562500 0.546875
vt 0.562500 0.546875
vt 0.562500 0.546875
vt 0.562500 0.546875
vt 0.562500 0.546875
vt 0.562500 0.546875
vt 0.562500 0.546875
vt 0.562500 0.546875
vt 0.562500 0.546875
vt 0.562500 0.546875
vt 0.562500 0.546875
vt 0.562500 0.546875
vt 0.562500 0.546875
vt 0.562500 0.546875
vt 0.562500 0.546875
vt 0.562500 0.546875
vt 0.562500 0.546875
vt 0.562500 0.546875
vt 0.562500 0.546875
vt 0.562500 0.546875
vt 0.562500 0.546875
vt 0.562500 0.546875
vt 0.562500 0.546875
vt 0.562500 0.546875
vt 0.562500 0.546875
vt 0.562500 0.546875
vt 0.562500 0.546875
vt 0.562500 0.546875
vt 0.562500 0.546875
vt 0.562500 0.546875
vt 0.562500 0.546875
vt 0.562500 0.546875
vt 0.562500 0.546875
vt 0.562500 0.546875
vt 0.562500 0.546875
vt 0.562500 0.546875
vt 0.562500 0.546875
vt 0.562500 0.546875
vt 0.562500 0.546875
vt 0.562500 0.546875
vt 0.562500 0.546875
vt 0.562500 0.546875
vt 0.562500 0.546875
vt 0.562500 0.546875
vt 0.562500 0.546875
vt 0.562500 0.546875
vt 0.562500 0.546875
vt 0.562500 0.546875
vt 0.562500 0.546875
vt 0.562500 0.546875
vt 0.562500 0.546875
vt 0.562500 0.546875
vt 0.562500 0.546875
vt 0.562500 0.546875
vt 0.562500 0.546875
vt 0.562500 0.546875
vt 0.562500 0.546875
vt 0.562500 0.546875
vt 0.562500 0.546875
vt 0.562500 0.546875
vt 0.562500 0.546875
vt 0.562500 0.546875
vt 0.562500 0.546875
vt 0.562500 0.546875
vt 0.562500 0.546875
vt 0.562500 0.546875
vt 0.562500 0.546875
vt 0.562500 0.546875
vt 0.562500 0.546875
vt 0.562500 0.546875
vt 0.562500 0.546875
vt 0.562500 0.546875
vt 0.562500 0.546875
vt 0.562500 0.546875
vt 0.562500 0.546875
vt 0.562500 0.546875
vt 0.562500 0.546875
vt 0.562500 0.546875
vt 0.562500 0.546875
vt 0.562500 0.546875
vt 0.562500 0.546875
vt 0.562500 0.546875
vt 0.562500 0.546875
vt 0.562500 0.546875
vt 0.562500 0.546875
vt 0.562500 0.546875
vt 0.562500 0.546875
vt 0.562500 0.546875
vt 0.562500 0.546875
vt 0.562500 0.546875
vt 0.562500 0.546875
vt 0.562500 0.546875
vt 0.562500 0.546875
vt 0.562500 0.546875
vt 0.562500 0.546875
vt 0.562500 0.546875
vt 0.562500 0.546875
vt 0.562500 0.546875
vt 0.562500 0.546875
vt 0.562500 0.546875
vt 0.562500 0.546875
vt 0.562500 0.546875
vt 0.562500 0.546875
vt 0.562500 0.546875
vt 0.562500 0.546875
vt 0.562500 0.546875
vt 0.562500 0.546875
vt 0.562500 0.546875
vt 0.562500 0.546875
vt 0.562500 0.546875
vt 0.562500 0.546875
vt 0.562500 0.546875
vt 0.562500 0.546875
vt 0.562500 0.546875
vt 0.562500 0.546875
vt 0.562500 0.546875
vt 0.562500 0.546875
vt 0.562500 0.546875
vt 0.562500 0.546875
vt 0.562500 0.546875
vt 0.562500 0.546875
vt 0.562500 0.546875
vt 0.562500 0.546875
vt 0.562500 0.546875
vt 0.562500 0.546875
vt 0.562500 0.546875
vt 0.562500 0.546875
vt 0.562500 0.546875
vt 0.562500 0.546875
vt 0.562500 0.546875
vt 0.562500 0.546875
vt 0.562500 0.546875
vt 0.562500 0.546875
vt 0.562500 0.546875
vt 0.562500 0.546875
vt 0.562500 0.546875
vt 0.562500 0.546875
vt 0.562500 0.546875
vt 0.562500 0.546875
vt 0.562500 0.546875
vt 0.562500 0.546875
vt 0.562500 0.546875
vt 0.562500 0.546875
vt 0.562500 0.546875
vt 0.562500 0.546875
vt 0.562500 0.546875
vt 0.562500 0.546875
vt 0.562500 0.546875
vt 0.562500 0.546875
vt 0.562500 0.546875
vt 0.562500 0.546875
vt 0.562500 0.546875
vt 0.562500 0.546875
vt 0.562500 0.546875
vt 0.562500 0.546875
vt 0.562500 0.546875
vt 0.562500 0.546875
vt 0.562500 0.546875
vn 0.0000 1.0000 0.0000
usemtl Material.001
s off
f 13/1/1 19/2/1 48/3/1
f 47/4/1 2/5/1 21/6/1
f 46/7/1 8/8/1 16/9/1
f 45/10/1 7/11/1 22/12/1
f 25/13/1 15/14/1 44/15/1
f 28/16/1 20/17/1 43/18/1
f 26/19/1 31/20/1 42/21/1
f 41/22/1 10/23/1 32/24/1
f 29/25/1 33/26/1 40/27/1
f 30/28/1 34/29/1 39/30/1
f 17/31/1 35/32/1 38/33/1
f 18/34/1 36/35/1 37/36/1
f 37/36/1 12/37/1 30/28/1
f 35/32/1 30/28/1 11/38/1
f 3/39/1 37/36/1 35/32/1
f 38/33/1 11/38/1 29/25/1
f 21/6/1 29/25/1 7/11/1
f 2/5/1 38/33/1 21/6/1
f 39/30/1 10/23/1 27/40/1
f 33/26/1 27/40/1 9/41/1
f 11/38/1 39/30/1 33/26/1
f 40/27/1 9/41/1 26/19/1
f 22/12/1 26/19/1 8/8/1
f 7/11/1 40/27/1 22/12/1
f 31/20/1 27/40/1 41/22/1
f 16/9/1 26/19/1 42/21/1
f 43/18/1 6/42/1 25/13/1
f 34/29/1 25/13/1 10/23/1
f 12/37/1 43/18/1 34/29/1
f 10/23/1 44/15/1 32/24/1
f 23/43/1 22/12/1 8/8/1
f 24/44/1 21/6/1 7/11/1
f 48/3/1 5/45/1 28/16/1
f 36/35/1 28/16/1 12/37/1
f 4/46/1 48/3/1 36/35/1
f 59/47/1 13/1/1 88/48/1
f 87/49/1 2/5/1 14/50/1
f 86/51/1 52/52/1 63/53/1
f 85/54/1 51/55/1 64/56/1
f 84/57/1 50/58/1 65/59/1
f 60/60/1 68/61/1 83/62/1
f 82/63/1 53/64/1 66/65/1
f 81/66/1 54/67/1 67/68/1
f 73/69/1 69/70/1 80/71/1
f 74/72/1 70/73/1 79/74/1
f 75/75/1 17/31/1 78/76/1
f 76/77/1 18/34/1 77/78/1
f 56/79/1 77/78/1 70/73/1
f 70/73/1 75/75/1 55/80/1
f 77/78/1 3/39/1 75/75/1
f 55/80/1 78/76/1 69/70/1
f 69/70/1 61/81/1 51/55/1
f 78/76/1 2/5/1 61/81/1
f 54/67/1 79/74/1 67/68/1
f 67/68/1 73/69/1 53/64/1
f 79/74/1 55/80/1 73/69/1
f 53/64/1 80/71/1 66/65/1
f 66/65/1 62/82/1 52/52/1
f 80/71/1 51/55/1 62/82/1
f 81/66/1 53/64/1 71/83/1
f 58/84/1 66/65/1 52/52/1
f 50/58/1 83/62/1 65/59/1
f 65/59/1 74/72/1 54/67/1
f 83/62/1 56/79/1 74/72/1
f 84/57/1 54/67/1 72/85/1
f 63/53/1 62/82/1 85/54/1
f 64/56/1 61/81/1 87/49/1
f 49/86/1 88/48/1 68/61/1
f 68/61/1 76/77/1 56/79/1
f 88/48/1 4/46/1 76/77/1
f 19/2/1 98/87/1 130/88/1
f 129/89/1 89/90/1 99/91/1
f 128/92/1 93/93/1 105/94/1
f 127/95/1 92/96/1 106/97/1
f 15/14/1 107/98/1 126/99/1
f 20/17/1 110/100/1 125/101/1
f 124/102/1 94/103/1 108/104/1
f 123/105/1 95/106/1 109/107/1
f 115/108/1 111/109/1 122/110/1
f 116/111/1 112/112/1 121/113/1
f 117/114/1 101/115/1 120/116/1
f 118/117/1 102/118/1 119/119/1
f 97/120/1 119/119/1 112/112/1
f 112/112/1 117/114/1 96/121/1
f 119/119/1 90/122/1 117/114/1
f 96/121/1 120/116/1 111/109/1
f 111/109/1 103/123/1 92/96/1
f 120/116/1 89/90/1 103/123/1
f 95/106/1 121/113/1 109/107/1
f 109/107/1 115/108/1 94/103/1
f 121/113/1 96/121/1 115/108/1
f 94/103/1 122/110/1 108/104/1
f 108/104/1 104/124/1 93/93/1
f 122/110/1 92/96/1 104/124/1
f 113/125/1 109/107/1 94/103/1
f 100/126/1 108/104/1 93/93/1
f 6/42/1 125/101/1 107/98/1
f 107/98/1 116/111/1 95/106/1
f 125/101/1 97/120/1 116/111/1
f 126/99/1 95/106/1 114/127/1
f 105/94/1 104/124/1 127/95/1
f 106/97/1 103/123/1 129/89/1
f 5/45/1 130/88/1 110/100/1
f 110/100/1 118/117/1 97/120/1
f 130/88/1 91/128/1 118/117/1
f 98/87/1 59/47/1 165/129/1
f 164/130/1 89/90/1 138/131/1
f 163/132/1 132/133/1 137/134/1
f 162/135/1 131/136/1 139/137/1
f 142/138/1 57/139/1 161/140/1
f 145/141/1 60/60/1 160/142/1
f 159/143/1 133/144/1 148/145/1
f 144/146/1 149/147/1 158/148/1
f 146/149/1 150/150/1 157/151/1
f 147/152/1 151/153/1 156/154/1
f 101/115/1 152/155/1 155/156/1
f 102/118/1 153/157/1 154/158/1
f 154/158/1 136/159/1 147/152/1
f 152/155/1 147/152/1 135/160/1
f 90/122/1 154/158/1 152/155/1
f 155/156/1 135/160/1 146/149/1
f 138/131/1 146/149/1 131/136/1
f 89/90/1 155/156/1 138/131/1
f 156/154/1 134/161/1 144/146/1
f 150/150/1 144/146/1 133/144/1
f 135/160/1 156/154/1 150/150/1
f 157/151/1 133/144/1 143/162/1
f 139/137/1 143/162/1 132/133/1
f 131/136/1 157/151/1 139/137/1
f 148/145/1 144/146/1 158/148/1
f 137/134/1 143/162/1 159/143/1
f 160/142/1 50/58/1 142/138/1
f 151/153/1 142/138/1 134/161/1
f 136/159/1 160/142/1 151/153/1
f 134/161/1 161/140/1 149/147/1
f 140/163/1 139/137/1 132/133/1
f 141/164/1 138/131/1 131/136/1
f 165/129/1 49/86/1 145/141/1
f 153/157/1 145/141/1 136/159/1
f 91/128/1 165/129/1 153/157/1
f 13/1/1 1/165/1 19/2/1
f 47/4/1 14/50/1 2/5/1
f 46/7/1 23/43/1 8/8/1
f 45/10/1 24/44/1 7/11/1
f 25/13/1 6/42/1 15/14/1
f 28/16/1 5/45/1 20/17/1
f 26/19/1 9/41/1 31/20/1
f 41/22/1 27/40/1 10/23/1
f 29/25/1 11/38/1 33/26/1
f 30/28/1 12/37/1 34/29/1
f 17/31/1 3/39/1 35/32/1
f 18/34/1 4/46/1 36/35/1
f 37/36/1 36/35/1 12/37/1
f 35/32/1 37/36/1 30/28/1
f 3/39/1 18/34/1 37/36/1
f 38/33/1 35/32/1 11/38/1
f 21/6/1 38/33/1 29/25/1
f 2/5/1 17/31/1 38/33/1
f 39/30/1 34/29/1 10/23/1
f 33/26/1 39/30/1 27/40/1
f 11/38/1 30/28/1 39/30/1
f 40/27/1 33/26/1 9/41/1
f 22/12/1 40/27/1 26/19/1
f 7/11/1 29/25/1 40/27/1
f 31/20/1 9/41/1 27/40/1
f 16/9/1 8/8/1 26/19/1
f 43/18/1 20/17/1 6/42/1
f 34/29/1 43/18/1 25/13/1
f 12/37/1 28/16/1 43/18/1
f 10/23/1 25/13/1 44/15/1
f 23/43/1 45/10/1 22/12/1
f 24/44/1 47/4/1 21/6/1
f 48/3/1 19/2/1 5/45/1
f 36/35/1 48/3/1 28/16/1
f 4/46/1 13/1/1 48/3/1
f 59/47/1 1/165/1 13/1/1
f 87/49/1 61/81/1 2/5/1
f 86/51/1 58/84/1 52/52/1
f 85/54/1 62/82/1 51/55/1
f 84/57/1 57/139/1 50/58/1
f 60/60/1 49/86/1 68/61/1
f 82/63/1 71/83/1 53/64/1
f 81/66/1 72/85/1 54/67/1
f 73/69/1 55/80/1 69/70/1
f 74/72/1 56/79/1 70/73/1
f 75/75/1 3/39/1 17/31/1
f 76/77/1 4/46/1 18/34/1
f 56/79/1 76/77/1 77/78/1
f 70/73/1 77/78/1 75/75/1
f 77/78/1 18/34/1 3/39/1
f 55/80/1 75/75/1 78/76/1
f 69/70/1 78/76/1 61/81/1
f 78/76/1 17/31/1 2/5/1
f 54/67/1 74/72/1 79/74/1
f 67/68/1 79/74/1 73/69/1
f 79/74/1 70/73/1 55/80/1
f 53/64/1 73/69/1 80/71/1
f 66/65/1 80/71/1 62/82/1
f 80/71/1 69/70/1 51/55/1
f 81/66/1 67/68/1 53/64/1
f 58/84/1 82/63/1 66/65/1
f 50/58/1 60/60/1 83/62/1
f 65/59/1 83/62/1 74/72/1
f 83/62/1 68/61/1 56/79/1
f 84/57/1 65/59/1 54/67/1
f 63/53/1 52/52/1 62/82/1
f 64/56/1 51/55/1 61/81/1
f 49/86/1 59/47/1 88/48/1
f 68/61/1 88/48/1 76/77/1
f 88/48/1 13/1/1 4/46/1
f 19/2/1 1/165/1 98/87/1
f 129/89/1 103/123/1 89/90/1
f 128/92/1 100/126/1 93/93/1
f 127/95/1 104/124/1 92/96/1
f 15/14/1 6/42/1 107/98/1
f 20/17/1 5/45/1 110/100/1
f 124/102/1 113/125/1 94/103/1
f 123/105/1 114/127/1 95/106/1
f 115/108/1 96/121/1 111/109/1
f 116/111/1 97/120/1 112/112/1
f 117/114/1 90/122/1 101/115/1
f 118/117/1 91/128/1 102/118/1
f 97/120/1 118/117/1 119/119/1
f 112/112/1 119/119/1 117/114/1
f 119/119/1 102/118/1 90/122/1
f 96/121/1 117/114/1 120/116/1
f 111/109/1 120/116/1 103/123/1
f 120/116/1 101/115/1 89/90/1
f 95/106/1 116/111/1 121/113/1
f 109/107/1 121/113/1 115/108/1
f 121/113/1 112/112/1 96/121/1
f 94/103/1 115/108/1 122/110/1
f 108/104/1 122/110/1 104/124/1
f 122/110/1 111/109/1 92/96/1
f 113/125/1 123/105/1 109/107/1
f 100/126/1 124/102/1 108/104/1
f 6/42/1 20/17/1 125/101/1
f 107/98/1 125/101/1 116/111/1
f 125/101/1 110/100/1 97/120/1
f 126/99/1 107/98/1 95/106/1
f 105/94/1 93/93/1 104/124/1
f 106/97/1 92/96/1 103/123/1
f 5/45/1 19/2/1 130/88/1
f 110/100/1 130/88/1 118/117/1
f 130/88/1 98/87/1 91/128/1
f 98/87/1 1/165/1 59/47/1
f 164/130/1 99/91/1 89/90/1
f 163/132/1 140/163/1 132/133/1
f 162/135/1 141/164/1 131/136/1
f 142/138/1 50/58/1 57/139/1
f 145/141/1 49/86/1 60/60/1
f 159/143/1 143/162/1 133/144/1
f 144/146/1 134/161/1 149/147/1
f 146/149/1 135/160/1 150/150/1
f 147/152/1 136/159/1 151/153/1
f 101/115/1 90/122/1 152/155/1
f 102/118/1 91/128/1 153/157/1
f 154/158/1 153/157/1 136/159/1
f 152/155/1 154/158/1 147/152/1
f 90/122/1 102/118/1 154/158/1
f 155/156/1 152/155/1 135/160/1
f 138/131/1 155/156/1 146/149/1
f 89/90/1 101/115/1 155/156/1
f 156/154/1 151/153/1 134/161/1
f 150/150/1 156/154/1 144/146/1
f 135/160/1 147/152/1 156/154/1
f 157/151/1 150/150/1 133/144/1
f 139/137/1 157/151/1 143/162/1
f 131/136/1 146/149/1 157/151/1
f 148/145/1 133/144/1 144/146/1
f 137/134/1 132/133/1 143/162/1
f 160/142/1 60/60/1 50/58/1
f 151/153/1 160/142/1 142/138/1
f 136/159/1 145/141/1 160/142/1
f 134/161/1 142/138/1 161/140/1
f 140/163/1 162/135/1 139/137/1
f 141/164/1 164/130/1 138/131/1
f 165/129/1 59/47/1 49/86/1
f 153/157/1 165/129/1 145/141/1
f 91/128/1 98/87/1 165/129/1
